<svg xmlns="http://www.w3.org/2000/svg" xmlns:xlink="http://www.w3.org/1999/xlink" width="24" height="24" version="1.1" viewBox="0 0 24 24"><title>Iconly/Curved/Activity</title><g id="Iconly/Curved/Activity" fill="none" fill-rule="evenodd" stroke="none" stroke-linecap="round" stroke-linejoin="round" stroke-width="1"><g id="Activity" stroke="#000" stroke-width="1.5" transform="translate(2.449500, 2.350000)"><polyline id="Stroke-1" points="4.468 12.504 7.461 8.615 10.875 11.295 13.804 7.515"/><path id="Stroke-2" d="M17.2176,2.48689958e-14 C18.2796,2.48689958e-14 19.1396,0.86 19.1396,1.922 C19.1396,2.983 18.2796,3.844 17.2176,3.844 C16.1556,3.844 15.2956,2.983 15.2956,1.922 C15.2956,0.86 16.1556,2.48689958e-14 17.2176,2.48689958e-14 Z"/><path id="Stroke-4" d="M18.306,6.919 C18.439,7.814 18.5,8.822 18.5,9.953 C18.5,16.891 16.188,19.203 9.25,19.203 C2.313,19.203 0,16.891 0,9.953 C0,3.016 2.313,0.703 9.25,0.703 C10.36,0.703 11.351,0.762 12.233,0.89"/></g></g></svg>