<svg xmlns="http://www.w3.org/2000/svg" xmlns:xlink="http://www.w3.org/1999/xlink" width="24" height="24" version="1.1" viewBox="0 0 24 24"><title>Iconly/Curved/Add User</title><g id="Iconly/Curved/Add-User" fill="none" fill-rule="evenodd" stroke="none" stroke-linecap="round" stroke-linejoin="round" stroke-width="1"><g id="Add-User" stroke="#000" stroke-width="1.5" transform="translate(2.850300, 2.150000)"><path id="Stroke-1" d="M7.072,19.6583 C3.258,19.6583 1.15463195e-13,19.0813 1.15463195e-13,16.7713 C1.15463195e-13,14.4613 3.237,12.3603 7.072,12.3603 C10.886,12.3603 14.144,14.4413 14.144,16.7503 C14.144,19.0593 10.907,19.6583 7.072,19.6583 Z"/><path id="Stroke-3" d="M7.07200002,9.066 C9.57500002,9.066 11.605,7.036 11.605,4.533 C11.605,2.029 9.57500002,1.50990331e-14 7.07200002,1.50990331e-14 C4.56900002,1.50990331e-14 2.53897,2.029 2.53897,4.533 C2.53000002,7.027 4.54600002,9.057 7.04000002,9.066 L7.07200002,9.066 Z"/><line id="Stroke-5" x1="16.281" x2="16.281" y1="5.979" y2="9.989"/><line id="Stroke-7" x1="18.327" x2="14.237" y1="7.984" y2="7.984"/></g></g></svg>