<svg xmlns="http://www.w3.org/2000/svg" xmlns:xlink="http://www.w3.org/1999/xlink" width="24" height="24" version="1.1" viewBox="0 0 24 24"><title>Iconly/Curved/Calendar</title><g id="Iconly/Curved/Calendar" fill="none" fill-rule="evenodd" stroke="none" stroke-linecap="round" stroke-linejoin="round" stroke-width="1"><g id="Calendar" stroke="#000" stroke-width="1.5" transform="translate(2.749800, 2.050100)"><path id="Stroke-1" d="M-1.0658141e-14,10.7255 C-1.0658141e-14,3.7695 2.319,1.4515 9.274,1.4515 C16.23,1.4515 18.549,3.7695 18.549,10.7255 C18.549,17.6815 16.23,19.9995 9.274,19.9995 C2.319,19.9995 -1.0658141e-14,17.6815 -1.0658141e-14,10.7255 Z"/><line id="Stroke-3" x1=".275" x2="18.283" y1="7.274" y2="7.274"/><line id="Stroke-5" x1="13.679" x2="13.688" y1="11.211" y2="11.211"/><line id="Stroke-7" x1="9.279" x2="9.288" y1="11.211" y2="11.211"/><line id="Stroke-9" x1="4.872" x2="4.881" y1="11.211" y2="11.211"/><line id="Stroke-11" x1="13.679" x2="13.688" y1="15.063" y2="15.063"/><line id="Stroke-13" x1="9.279" x2="9.288" y1="15.063" y2="15.063"/><line id="Stroke-15" x1="4.872" x2="4.881" y1="15.063" y2="15.063"/><line id="Stroke-17" x1="13.283" x2="13.283" y1="0" y2="3.262"/><line id="Stroke-19" x1="5.275" x2="5.275" y1="0" y2="3.262"/></g></g></svg>