<svg xmlns="http://www.w3.org/2000/svg" xmlns:xlink="http://www.w3.org/1999/xlink" width="24" height="24" version="1.1" viewBox="0 0 24 24"><title>Iconly/Curved/Filter</title><g id="Iconly/Curved/Filter" fill="none" fill-rule="evenodd" stroke="none" stroke-linecap="round" stroke-linejoin="round" stroke-width="1"><g id="Filter" stroke="#000" stroke-width="1.5" transform="translate(4.000000, 4.000000)"><line id="Stroke-1" x1="7.144" x2=".671" y1="13.883" y2="13.883"/><path id="Stroke-3" d="M11.2049684,13.8837211 C11.2049684,15.9255105 11.8858632,16.6055105 13.9267579,16.6055105 C15.9676526,16.6055105 16.6485474,15.9255105 16.6485474,13.8837211 C16.6485474,11.8419316 15.9676526,11.1619316 13.9267579,11.1619316 C11.8858632,11.1619316 11.2049684,11.8419316 11.2049684,13.8837211 Z"/><line id="Stroke-5" x1="10.177" x2="16.648" y1="3.394" y2="3.394"/><path id="Stroke-7" d="M6.11525789,3.39284211 C6.11525789,1.35194737 5.43436316,0.671052632 3.39346842,0.671052632 C1.35167895,0.671052632 0.670784211,1.35194737 0.670784211,3.39284211 C0.670784211,5.43463158 1.35167895,6.11463158 3.39346842,6.11463158 C5.43436316,6.11463158 6.11525789,5.43463158 6.11525789,3.39284211 Z"/></g></g></svg>