<svg xmlns="http://www.w3.org/2000/svg" xmlns:xlink="http://www.w3.org/1999/xlink" width="24" height="24" version="1.1" viewBox="0 0 24 24"><title>Iconly/Curved/Game</title><g id="Iconly/Curved/Game" fill="none" fill-rule="evenodd" stroke="none" stroke-linecap="round" stroke-linejoin="round" stroke-width="1"><g id="Game" stroke="#000" stroke-width="1.5" transform="translate(2.000000, 1.977425)"><line id="Stroke-1" x1="7.255" x2="7.255" y1="10.085" y2="13.66"/><line id="Stroke-2" x1="9.079" x2="5.432" y1="11.872" y2="11.872"/><line id="Stroke-3" x1="13.477" x2="13.375" y1="10.194" y2="10.194"/><line id="Stroke-4" x1="15.208" x2="15.106" y1="13.606" y2="13.606"/><path id="Stroke-5" d="M6.5140228,0.238664844 L6.5140228,0.238664844 C6.52070542,0.952750059 7.10591161,1.52554569 7.81999683,1.51886307 L8.82811713,1.51886307 C9.93074871,1.51027114 10.8329018,2.39428572 10.8481764,3.4969173 L10.8481764,4.50408295"/><path id="Stroke-7" d="M19.8121415,11.9178722 C19.8121415,6.35793599 17.4254931,4.50398748 10.2645931,4.50398748 C3.10273844,4.50398748 0.716089999,6.35793599 0.716089999,11.9178722 C0.716089999,17.4787631 3.10273844,19.3317569 10.2645931,19.3317569 C17.4254931,19.3317569 19.8121415,17.4787631 19.8121415,11.9178722 Z"/></g></g></svg>