<svg xmlns="http://www.w3.org/2000/svg" xmlns:xlink="http://www.w3.org/1999/xlink" width="24" height="24" version="1.1" viewBox="0 0 24 24"><title>Iconly/Curved/Hide</title><g id="Iconly/Curved/Hide" fill="none" fill-rule="evenodd" stroke="none" stroke-linecap="round" stroke-linejoin="round" stroke-width="1"><g id="Hide" stroke="#000" stroke-width="1.5" transform="translate(2.000000, 3.500000)"><path id="Stroke-1" d="M4.42,14.2298 C2.19,12.7698 0.75,10.5698 0.75,8.6398 C0.75,5.3598 4.89,1.3398 10,1.3398 C12.09,1.3398 14.03,2.0098 15.59,3.0498"/><path id="Stroke-3" d="M17.8497,5.1102 C18.7407,6.2402 19.2597,7.4902 19.2597,8.6402 C19.2597,11.9202 15.1097,15.9402 9.9997,15.9402 C9.0897,15.9402 8.2007,15.8102 7.3697,15.5802"/><path id="Stroke-5" d="M7.7657,10.867 C7.1707,10.278 6.8377,9.475 6.8406799,8.638 C6.8367,6.893 8.2487,5.475 9.9947,5.47199104 C10.8347,5.47 11.6407,5.803 12.2347,6.397"/><path id="Stroke-7" d="M13.1095,9.1991 C12.8755,10.4911 11.8645,11.5041 10.5725,11.7411"/><line id="Stroke-9" x1="17.892" x2="2.118" y1=".75" y2="16.524"/></g></g></svg>