<svg xmlns="http://www.w3.org/2000/svg" xmlns:xlink="http://www.w3.org/1999/xlink" width="24" height="24" version="1.1" viewBox="0 0 24 24"><title>Iconly/Curved/Paper Plus</title><g id="Iconly/Curved/Paper-Plus" fill="none" fill-rule="evenodd" stroke="none" stroke-linecap="round" stroke-linejoin="round" stroke-width="1"><g id="Paper-Plus" stroke="#000" stroke-width="1.5" transform="translate(3.650100, 2.749900)"><path id="Stroke-1" d="M16.51,5.55 L10.84,0.15 C10.11,0.05 9.29,0 8.39,0 C2.1,0 -1.95399252e-14,2.32 -1.95399252e-14,9.25 C-1.95399252e-14,16.19 2.1,18.5 8.39,18.5 C14.69,18.5 16.79,16.19 16.79,9.25 C16.79,7.83 16.7,6.6 16.51,5.55 Z"/><path id="Stroke-3" d="M10.2839,0.0827 L10.2839,2.7437 C10.2839,4.6017 11.7899,6.1067 13.6479,6.1067 L16.5989,6.1067"/><line id="Stroke-5" x1="10.662" x2="5.762" y1="10.231" y2="10.231"/><line id="Stroke-7" x1="8.213" x2="8.213" y1="12.681" y2="7.781"/></g></g></svg>