<svg xmlns="http://www.w3.org/2000/svg" xmlns:xlink="http://www.w3.org/1999/xlink" width="24" height="24" version="1.1" viewBox="0 0 24 24"><title>Iconly/Curved/Paper Download</title><g id="Iconly/Curved/Paper-Download" fill="none" fill-rule="evenodd" stroke="none" stroke-linecap="round" stroke-linejoin="round" stroke-width="1"><g id="Paper-Download" stroke="#000" stroke-width="1.5" transform="translate(3.649800, 2.749900)"><path id="Stroke-1" d="M16.51,5.55 L10.84,0.15 C10.11,0.05 9.29,0 8.39,0 C2.1,0 -1.95399252e-14,2.32 -1.95399252e-14,9.25 C-1.95399252e-14,16.19 2.1,18.5 8.39,18.5 C14.69,18.5 16.79,16.19 16.79,9.25 C16.79,7.83 16.7,6.6 16.51,5.55 Z"/><path id="Stroke-3" d="M10.2844,0.0827 L10.2844,2.7437 C10.2844,4.6017 11.7904,6.1067 13.6484,6.1067 L16.5994,6.1067"/><line id="Stroke-5" x1="8.011" x2="8.011" y1="13.267" y2="7.226"/><polyline id="Stroke-7" points="5.665 10.912 8.01 13.267 10.355 10.912"/></g></g></svg>