<svg xmlns="http://www.w3.org/2000/svg" xmlns:xlink="http://www.w3.org/1999/xlink" width="24" height="24" version="1.1" viewBox="0 0 24 24"><title>Iconly/Curved/Password</title><g id="Iconly/Curved/Password" fill="none" fill-rule="evenodd" stroke="none" stroke-linecap="round" stroke-linejoin="round" stroke-width="1"><g id="Password" stroke="#000" stroke-width="1.5" transform="translate(2.749900, 2.750100)"><path id="Stroke-1" d="M7.9389,9.25 C7.9389,10.273 7.1099,11.102 6.0869,11.102 C5.0639,11.102 4.2349,10.273 4.2349,9.25 C4.2349,8.227 5.0639,7.398 6.0869,7.398 L6.0899,7.398 C7.1119,7.399 7.9389,8.228 7.9389,9.25 Z"/><polyline id="Stroke-3" points="7.942 9.25 14.26 9.25 14.26 11.102"/><line id="Stroke-5" x1="11.432" x2="11.432" y1="11.102" y2="9.25"/><path id="Stroke-7" d="M0,9.25 C0,2.313 2.313,0 9.25,0 C16.187,0 18.5,2.313 18.5,9.25 C18.5,16.187 16.187,18.5 9.25,18.5 C2.313,18.5 0,16.187 0,9.25 Z"/></g></g></svg>