<svg xmlns="http://www.w3.org/2000/svg" xmlns:xlink="http://www.w3.org/1999/xlink" width="24" height="24" version="1.1" viewBox="0 0 24 24"><title>Iconly/Curved/Volume Off</title><g id="Iconly/Curved/Volume-Off" fill="none" fill-rule="evenodd" stroke="none" stroke-linecap="round" stroke-linejoin="round" stroke-width="1"><g id="Volume-Off" stroke="#000" stroke-width="1.5" transform="translate(4.000000, 4.000000)"><path id="Stroke-1" d="M4.40353684,12.5533368 C3.32090526,12.3028105 2.58722105,12.4996526 1.68353684,11.7391263 C0.672484211,10.8801789 0.663536842,9.43965263 0.672484211,8.21386316 C0.663536842,6.98807368 0.672484211,5.54754737 1.68353684,4.6886 C2.69458947,3.82965263 3.49985263,4.1786 4.81511579,3.74912632 C6.12143158,3.31965263 7.95564211,0.653336842 9.98669474,1.85228421 C10.8098526,2.43386316 11.2930105,3.38228421 11.4898526,5.46702105"/><path id="Stroke-3" d="M11.5794158,9.67210526 C11.4631,12.6784211 10.9441526,13.8863158 9.98678421,14.5663158 C8.94888947,15.1836842 7.95573158,14.7810526 7.06994211,14.1815789"/><line id="Stroke-5" x1="16.285" x2=".941" y1=".671" y2="16.016"/></g></g></svg>